<svg width="1600" height="950" viewBox="0 0 1600 950" fill="none" xmlns="http://www.w3.org/2000/svg">
<defs><linearGradient id="g" x1="0" y1="0" x2="0" y2="950"><stop stop-color="#050505"/><stop offset="1" stop-color="#000"/></linearGradient><radialGradient id="r" cx="0" cy="0" r="1" gradientUnits="userSpaceOnUse" gradientTransform="translate(1100 320) rotate(90) scale(560 780)"><stop stop-color="#D4AF37" stop-opacity=".48"/><stop offset=".55" stop-color="#D4AF37" stop-opacity=".12"/><stop offset="1" stop-color="#D4AF37" stop-opacity="0"/></radialGradient><linearGradient id="gold" x1="0" y1="0" x2="1" y2="1"><stop stop-color="#F3D368"/><stop offset=".55" stop-color="#D4AF37"/><stop offset="1" stop-color="#9A6B12"/></linearGradient><linearGradient id="car1" x1="120" y1="560" x2="850" y2="730"><stop stop-color="#060606"/><stop offset=".5" stop-color="#2a2a2a"/><stop offset="1" stop-color="#050505"/></linearGradient><linearGradient id="car2" x1="780" y1="600" x2="1440" y2="735"><stop stop-color="#111"/><stop offset=".45" stop-color="#454545"/><stop offset="1" stop-color="#0b0b0b"/></linearGradient><filter id="s"><feDropShadow dx="0" dy="28" stdDeviation="22" flood-color="#000" flood-opacity=".75"/></filter></defs><rect width="1600" height="950" fill="url(#g)"/><rect width="1600" height="950" fill="url(#r)"/><g opacity=".85"><rect x="1165" y="260" width="55" height="330" fill="#101010" stroke="#D4AF37" stroke-opacity=".18"/><rect x="1240" y="155" width="75" height="435" fill="#0b0b0b" stroke="#D4AF37" stroke-opacity=".2"/><path d="M1278 82l37 73h-75l38-73z" fill="#0b0b0b" stroke="#D4AF37" stroke-opacity=".2"/><rect x="1345" y="275" width="55" height="315" fill="#101010" stroke="#D4AF37" stroke-opacity=".18"/><rect x="1420" y="210" width="85" height="380" fill="#0b0b0b" stroke="#D4AF37" stroke-opacity=".2"/><path d="M1462 120l43 90h-85l42-90z" fill="#0b0b0b" stroke="#D4AF37" stroke-opacity=".2"/><g fill="#D4AF37" opacity=".65"><rect x="1182" y="310" width="9" height="12"/><rect x="1204" y="310" width="9" height="12"/><rect x="1262" y="225" width="10" height="13"/><rect x="1292" y="225" width="10" height="13"/><rect x="1262" y="290" width="10" height="13"/><rect x="1292" y="290" width="10" height="13"/><rect x="1442" y="270" width="10" height="13"/><rect x="1472" y="270" width="10" height="13"/><rect x="1442" y="340" width="10" height="13"/><rect x="1472" y="340" width="10" height="13"/></g></g><path d="M0 650c350-95 640-65 880-38 240 27 445-10 720-75v413H0V650z" fill="#0b0b0b"/><path d="M85 850h1430" stroke="url(#gold)" stroke-width="4" stroke-opacity=".35"/><g filter="url(#s)"><path d="M120 682c32-78 94-120 185-134l160-25c52-72 125-102 240-102h135c98 0 178 43 232 122l112 20c68 12 111 56 126 127l15 71c7 34-18 66-53 66H144c-43 0-70-44-50-83l26-62z" fill="url(#car1)"/><path d="M440 532c65-73 140-101 258-101h135c82 0 142 34 202 104l-595-3z" fill="#080808"/><path d="M490 523c54-52 112-71 200-71h40v78l-240-7z" fill="#242424"/><path d="M760 452h70c60 0 101 22 150 80l-220-2v-78z" fill="#242424"/><path d="M195 680h142c22 0 40 18 40 40H145c6-25 25-40 50-40z" fill="url(#gold)"/><path d="M1060 682h155c18 0 32 13 35 31H1008c6-19 25-31 52-31z" fill="url(#gold)"/><circle cx="360" cy="815" r="88" fill="#050505"/><circle cx="360" cy="815" r="60" fill="#111" stroke="#D4AF37" stroke-width="8"/><circle cx="360" cy="815" r="24" fill="#D4AF37"/><circle cx="1065" cy="815" r="88" fill="#050505"/><circle cx="1065" cy="815" r="60" fill="#111" stroke="#D4AF37" stroke-width="8"/><circle cx="1065" cy="815" r="24" fill="#D4AF37"/><path d="M535 655h360" stroke="#D4AF37" stroke-width="5" stroke-linecap="round" opacity=".5"/></g><g filter="url(#s)" transform="translate(270 48) scale(.82)"><path d="M760 710c28-65 83-101 166-112l128-19c47-56 114-81 203-81h98c72 0 131 30 176 89l83 14c52 9 89 45 103 97l18 62c10 37-19 74-57 74H785c-39 0-65-40-47-74l22-50z" fill="url(#car2)"/><path d="M1050 584c54-56 118-75 206-75h94c63 0 111 23 154 78l-454-3z" fill="#0c0c0c"/><path d="M1100 577c45-42 94-55 155-55h30v62l-185-7z" fill="#333"/><path d="M1315 522h36c54 0 85 19 122 63l-158-1v-62z" fill="#333"/><path d="M830 696h115c19 0 35 16 35 35H795c4-20 19-35 35-35z" fill="#D4AF37" opacity=".9"/><path d="M1500 698h120c13 0 25 10 28 23h-190c6-14 21-23 42-23z" fill="#D4AF37" opacity=".88"/><circle cx="960" cy="820" r="72" fill="#050505"/><circle cx="960" cy="820" r="50" fill="#111" stroke="#D4AF37" stroke-width="7"/><circle cx="960" cy="820" r="20" fill="#D4AF37"/><circle cx="1510" cy="820" r="72" fill="#050505"/><circle cx="1510" cy="820" r="50" fill="#111" stroke="#D4AF37" stroke-width="7"/><circle cx="1510" cy="820" r="20" fill="#D4AF37"/></g></svg>
